<svg  viewBox="0 0 18 20" fill="none" xmlns="http://www.w3.org/2000/svg">
<path d="M6.1 7.25L1.05 4.425L9 0L16.95 4.425L11.9 7.25C11.5167 6.85 11.075 6.54167 10.575 6.325C10.075 6.10833 9.55 6 9 6C8.45 6 7.925 6.10833 7.425 6.325C6.925 6.54167 6.48333 6.85 6.1 7.25ZM8 19.45L0 15V6.125L5.125 9C5.075 9.16667 5.04167 9.32917 5.025 9.4875C5.00833 9.64583 5 9.81667 5 10C5 10.9167 5.275 11.7333 5.825 12.45C6.375 13.1667 7.1 13.6417 8 13.875V19.45ZM9 12C8.45 12 7.97917 11.8042 7.5875 11.4125C7.19583 11.0208 7 10.55 7 10C7 9.45 7.19583 8.97917 7.5875 8.5875C7.97917 8.19583 8.45 8 9 8C9.55 8 10.0208 8.19583 10.4125 8.5875C10.8042 8.97917 11 9.45 11 10C11 10.55 10.8042 11.0208 10.4125 11.4125C10.0208 11.8042 9.55 12 9 12ZM10 19.45V13.875C10.9 13.6417 11.625 13.1667 12.175 12.45C12.725 11.7333 13 10.9167 13 10C13 9.81667 12.9917 9.64583 12.975 9.4875C12.9583 9.32917 12.925 9.16667 12.875 9L18 6.125V15L10 19.45Z" fill="currentColor"/>
</svg>
